# xmcd CD database file
#
# Track frame offsets:
#	150
#	22375
#	46850
#	68850
#	85380
#	108937
#	130505
#	151567
#	171512
#	186650
#	210770
#
# Disc length: 3110 seconds
#
# Revision: 0
# Processed by: cddbd v1.5.1PL0 Copyright (c) Steve Scherf et al.
# Submitted via: CDex 1.51
#
DISCID=8f0c240b
DTITLE=草尾毅 - COMS
DYEAR=1900
DGENRE=JPop
TTITLE0=Little Wing
TTITLE1=君のために-lover's eye-
TTITLE2=キリがない・・・やるせない・・・
TTITLE3=フェミニストの憂鬱
TTITLE4=君をひとりにはさせない
TTITLE5=Workin' for You
TTITLE6=Good-bye My Hometown
TTITLE7=とまらないREVOLUTION
TTITLE8=930 Function
TTITLE9=木霊(CODAMA)
TTITLE10=砂の嵐〜Sandstorm〜
EXTD=
EXTT0=
EXTT1=
EXTT2=
EXTT3=
EXTT4=
EXTT5=
EXTT6=
EXTT7=
EXTT8=
EXTT9=
EXTT10=
PLAYORDER=
